<?xml version="1.0" encoding="UTF-8" standalone="no" ?>
<!DOCTYPE svg PUBLIC "-//W3C//DTD SVG 1.1//EN" "http://www.w3.org/Graphics/SVG/1.1/DTD/svg11.dtd">
<svg xmlns="http://www.w3.org/2000/svg" xmlns:xlink="http://www.w3.org/1999/xlink" version="1.1" width="400" height="400" viewBox="0 0 400 400" xml:space="preserve">
<desc>Created with Fabric.js 3.6.2</desc>
<defs>
</defs>
<g transform="matrix(7.14 0 0 7.14 244.28 150.19)"  >
<path style="stroke: none; stroke-width: 1; stroke-dasharray: none; stroke-linecap: butt; stroke-dashoffset: 0; stroke-linejoin: miter; stroke-miterlimit: 4; fill: rgb(0,0,0); fill-rule: nonzero; opacity: 1;"  transform=" translate(-20.2, -7.03)" d="M 25.8754 13.0523 C 26.4337 9.77553 25.0598 6.43959 22.8822 4.13919 C 20.7105 1.84503 17.5468 0.392837 14.3983 1.24794 L 14.9124 3.12552 C 17.1384 2.52095 19.5992 3.50808 21.4604 5.47421 C 23.3156 7.43409 24.3829 10.1794 23.9489 12.7268 L 25.8754 13.0523 Z" stroke-linecap="round" />
</g>
<g transform="matrix(7.14 0 0 7.14 190.72 202.5)"  >
<path style="stroke: none; stroke-width: 1; stroke-dasharray: none; stroke-linecap: butt; stroke-dashoffset: 0; stroke-linejoin: miter; stroke-miterlimit: 4; fill: rgb(0,0,0); fill-rule: evenodd; opacity: 1;"  transform=" translate(-12.7, -14.35)" d="M 0 7.33727 C 0 4.22409 2.53376 1.7002 5.65951 1.7002 C 6.26992 1.7002 6.85961 1.7968 7.4129 1.97623 C 8.12047 2.20569 8.53604 2.81743 8.64271 3.42722 L 9.60443 8.92084 L 9.77136 10.0912 C 9.85762 10.6932 9.66147 11.3885 9.0814 11.8276 C 8.48 12.2828 7.78337 12.6216 7.0259 12.8087 C 7.71911 14.4068 8.70996 15.8603 9.94667 17.0921 C 11.184 18.3246 12.6442 19.3119 14.2496 20.0024 C 14.4373 19.2483 14.7771 18.5547 15.2338 17.9559 C 15.6747 17.3778 16.373 17.1822 16.9777 17.2682 L 18.1512 17.4351 L 23.6686 18.3924 C 24.281 18.4987 24.8955 18.9128 25.1258 19.6178 C 25.3056 20.1685 25.4025 20.7554 25.4025 21.3629 C 25.4025 24.4761 22.8687 27 19.7429 27 C 19.4919 27 19.2443 26.9837 19.0011 26.9519 C 17.8674 26.9095 16.7412 26.7697 15.635 26.535 C 14.4624 26.2862 13.3121 25.9307 12.1991 25.4715 C 9.80815 24.4851 7.63566 23.0392 5.8057 21.2165 C 3.97575 19.3937 2.52415 17.2298 1.53379 14.8483 C 1.07276 13.7397 0.715885 12.594 0.466102 11.426 C 0.230225 10.323 0.0898451 9.2001 0.0474354 8.06962 C 0.0161055 7.82949 0 7.58502 0 7.33727 Z M 17.8308 19.355 L 16.7398 19.2002 C 16.4553 19.5914 16.2464 20.0394 16.1335 20.5233 C 16.0176 21.0205 15.7098 21.4551 15.2913 21.7246 C 14.8606 22.0018 14.2746 22.1209 13.6924 21.8807 C 11.7748 21.0896 10.0325 19.93 8.56489 18.4682 C 7.09727 17.0064 5.9331 15.2709 5.13883 13.361 C 4.89801 12.7819 5.01741 12.1989 5.29547 11.7706 C 5.56573 11.3542 6.0016 11.0481 6.50034 10.933 C 6.98731 10.8206 7.43806 10.6122 7.83147 10.3281 L 7.67025 9.20268 L 6.80473 4.25874 L 6.72459 3.80081 C 6.38835 3.70052 6.0311 3.64633 5.65951 3.64633 C 3.93876 3.64633 2.49186 4.81469 2.07495 6.39854 C 1.99605 6.69827 1.95404 7.01288 1.95404 7.33727 C 1.95404 7.5127 1.96626 7.68474 1.98977 7.85271 L 1.99676 7.90268 L 1.99852 7.95311 C 2.03471 8.98632 2.16173 10.0127 2.37728 11.0206 C 2.6023 12.0728 2.92379 13.1049 3.33911 14.1036 C 4.23129 16.249 5.53897 18.1984 7.18749 19.8404 C 8.836 21.4824 10.7931 22.7849 12.947 23.6736 C 13.9496 24.0872 14.9858 24.4075 16.0422 24.6316 C 17.0531 24.8461 18.0826 24.9726 19.1189 25.0087 L 19.1701 25.0105 L 19.2208 25.0176 C 19.3909 25.0415 19.5652 25.0539 19.7429 25.0539 C 21.7893 25.0539 23.4484 23.4015 23.4484 21.3629 C 23.4484 20.9931 23.3941 20.6375 23.2936 20.3028 L 17.8308 19.355 Z" stroke-linecap="round" />
</g>
<g transform="matrix(7.14 0 0 7.14 229.9 165.82)"  >
<path style="stroke: none; stroke-width: 1; stroke-dasharray: none; stroke-linecap: butt; stroke-dashoffset: 0; stroke-linejoin: miter; stroke-miterlimit: 4; fill: rgb(0,0,0); fill-rule: nonzero; opacity: 1;"  transform=" translate(-18.19, -9.21)" d="M 20.0743 7.48463 C 21.3312 8.80872 21.9881 10.765 21.4589 12.6642 L 19.576 12.1437 C 19.896 10.9954 19.5119 9.72508 18.6543 8.82161 C 17.8105 7.93267 16.5783 7.47178 15.251 7.83732 L 14.7302 5.96157 C 16.8478 5.37839 18.8036 6.14601 20.0743 7.48463 Z" stroke-linecap="round" />
</g>
</svg>